<svg width="48" height="48" viewBox="0 0 48 48" fill="none" xmlns="http://www.w3.org/2000/svg">
<path d="M24 0C27.6819 -1.60941e-07 30.667 2.98509 30.667 6.66699V17.333H41.333C45.0149 17.333 48 20.3181 48 24C48 27.6819 45.0149 30.667 41.333 30.667H30.667V41.333C30.667 45.0149 27.6819 48 24 48C20.3181 48 17.333 45.0149 17.333 41.333V30.667H6.66699C2.98509 30.667 0 27.6819 0 24C2.68445e-07 20.3181 2.98509 17.333 6.66699 17.333H17.333V6.66699C17.333 2.98509 20.3181 5.47507e-07 24 0Z" fill="#F8ACB5"/>
</svg>
