<svg width="64" height="64" viewBox="0 0 64 64" fill="none" xmlns="http://www.w3.org/2000/svg">
<path d="M19.5 20.6316C19.5 22.2904 19.8233 23.9329 20.4515 25.4655C21.0797 26.998 22.0004 28.3905 23.1612 29.5635C24.3219 30.7364 25.6999 31.6668 27.2165 32.3016C28.733 32.9364 30.3585 33.2632 32 33.2632C33.6415 33.2632 35.267 32.9364 36.7835 32.3016C38.3001 31.6668 39.6781 30.7364 40.8388 29.5635C41.9996 28.3905 42.9203 26.998 43.5485 25.4655C44.1767 23.9329 44.5 22.2904 44.5 20.6316C44.5 17.2815 43.183 14.0686 40.8388 11.6997C38.4946 9.33082 35.3152 8 32 8C28.6848 8 25.5054 9.33082 23.1612 11.6997C20.817 14.0686 19.5 17.2815 19.5 20.6316Z" fill="#F8ACB5"/>
<path d="M10.75 39.5789C12.4162 37.8952 15.75 37.0526 20.75 37.0526C22.4162 47.1579 24.5 52.2105 27 52.2105C30.75 52.2105 30.75 52.2105 30.75 50.9474C30.75 50.5697 29.2925 48.9036 29.455 48.421C30.1775 46.2737 30.32 43.1562 30.3637 40.8396C30.385 39.7634 29.23 38.8627 29.5 38.3158C30.1225 37.0577 31.0662 37.0577 32 37.0526C32.9412 37.0476 33.8725 37.0476 34.5 38.3158C34.7713 38.864 33.6162 39.7596 33.6362 40.8421C33.6787 43.1613 33.8225 46.2661 34.5475 48.416C34.7075 48.8922 33.25 50.5747 33.25 50.9474C33.25 52.2105 33.25 52.2105 37 52.2105C39.5 52.2105 41.5837 47.1579 43.25 37.0526C48.25 37.0526 51.5838 37.8952 53.25 39.5789C55.75 42.1053 57 44.6316 57 47.4737V53.4737C57 53.8054 56.9353 54.134 56.8097 54.4405C56.6841 54.747 56.4999 55.0255 56.2678 55.2601C56.0356 55.4946 55.76 55.6807 55.4567 55.8077C55.1534 55.9347 54.8283 56 54.5 56H9.5C9.1717 56 8.8466 55.9347 8.54329 55.8077C8.23998 55.6807 7.96438 55.4946 7.73223 55.2601C7.50009 55.0255 7.31594 54.747 7.1903 54.4405C7.06466 54.134 7 53.8054 7 53.4737V47.4737C7 44.6316 8.25 42.1053 10.75 39.5789Z" fill="#F8ACB5"/>
</svg>
